<?xml version="1.0" encoding="utf-8"?>
<!-- Generator: Adobe Illustrator 23.1.1, SVG Export Plug-In . SVG Version: 6.00 Build 0)  -->
<svg version="1.1" id="Layer_1" xmlns="http://www.w3.org/2000/svg" xmlns:xlink="http://www.w3.org/1999/xlink" x="0px" y="0px"
	 viewBox="0 0 38.8 38.8" style="enable-background:new 0 0 38.8 38.8;" xml:space="preserve">
<style type="text/css">
	.st0{fill:#0071A2;}
</style>
<path class="st0" d="M24.3,19.6l1.6-0.2c4.3-0.4,8.5-1.4,12.5-2.7l0,0l0,0c-0.2-1.5-0.6-2.9-1.2-4.3l0-0.1l0,0
	c-3.4,2.7-7.3,4.6-11.5,5.5l-1.5,0.3l1.5-0.5c4.2-1.4,7.8-4.4,10.2-8.2l0,0l0,0c-0.8-1.4-1.8-2.6-3-3.8l-0.1-0.1l0,0.1
	c-0.8,6.8-6.5,11.9-13.4,11.9c-3.4,0-6.7-1.3-9.2-3.6C7.9,11.9,6.4,9,6.1,5.8l0-0.1L6,5.8C4.9,6.9,3.8,8.2,3,9.5l0,0l0,0
	c2.4,3.9,6.1,6.9,10.5,8.3l1.5,0.5l-1.5-0.3c-4.4-0.9-8.4-2.8-11.9-5.6l0,0l0,0.1c-0.5,1.3-0.9,2.8-1.1,4.2l0,0l0,0
	c4.1,1.4,8.3,2.3,12.6,2.7l1.6,0.2H0.2v0c0,2,0.3,4.1,1,6l0,0l0,0c3.6-2.2,7.6-3.8,11.7-4.5l1-0.2l-1,0.4c-4.2,1.5-7.7,4.4-10,8.3
	l0,0l0,0C3.8,31,4.9,32.3,6,33.4l0.1,0.1l0-0.1c0.7-6.9,6.4-12.1,13.4-12.1c3.4,0,6.7,1.3,9.2,3.6c2.4,2.2,3.8,5.2,4.2,8.4l0,0.1
	l0.1-0.1c1.2-1.1,2.2-2.4,3-3.8l0,0l0,0c-2.3-3.7-5.8-6.6-9.9-8.1l-1-0.4l1,0.2c4.1,0.8,8,2.3,11.5,4.5l0,0l0,0c0.6-1.9,1-3.9,1-5.9
	v0L24.3,19.6z M19.4,1.8c3.9,0,7,3.1,7,7c0,3.9-3.1,7-7,7c-3.9,0-7-3.1-7-7S15.6,1.8,19.4,1.8 M19.4,16.9c5.7,0,10.2-4.6,10.2-10.3
	c0-1.3-0.2-2.5-0.7-3.7l0,0l0,0c-2.9-1.6-6.2-2.5-9.5-2.5c-3.3,0-6.6,0.9-9.5,2.5l0,0l0,0C9.4,4.1,9.2,5.3,9.2,6.6
	C9.2,12.3,13.8,16.9,19.4,16.9 M19.4,37.3c-3.9,0-7-3.1-7-7c0-3.9,3.1-7,7-7c3.9,0,7,3.1,7,7C26.4,34.2,23.3,37.3,19.4,37.3
	 M19.4,22.3c-5.7,0-10.2,4.6-10.2,10.2c0,1.3,0.2,2.6,0.7,3.8l0,0l0,0c0.1,0.1,0.3,0.2,0.4,0.2c2.8,1.5,5.9,2.3,9.1,2.3
	c3.3,0,6.6-0.9,9.5-2.5l0,0l0,0c0.5-1.2,0.7-2.5,0.7-3.8C29.7,26.9,25.1,22.3,19.4,22.3"/>
</svg>
